<svg width="24" height="24" viewBox="0 0 24 24" fill="none" xmlns="http://www.w3.org/2000/svg">
<path d="M12 3C7.02823 3 3 7.06452 3 12C3 16.9718 7.02823 21 12 21C16.9355 21 21 16.9718 21 12C21 7.06452 16.9355 3 12 3ZM12 6.99194C12.8347 6.99194 13.5242 7.68145 13.5242 8.51613C13.5242 9.3871 12.8347 10.0403 12 10.0403C11.129 10.0403 10.4758 9.3871 10.4758 8.51613C10.4758 7.68145 11.129 6.99194 12 6.99194ZM14.0323 16.2097C14.0323 16.4637 13.8145 16.6452 13.5968 16.6452H10.4032C10.1492 16.6452 9.96774 16.4637 9.96774 16.2097V15.3387C9.96774 15.121 10.1492 14.9032 10.4032 14.9032H10.8387V12.5806H10.4032C10.1492 12.5806 9.96774 12.3992 9.96774 12.1452V11.2742C9.96774 11.0565 10.1492 10.8387 10.4032 10.8387H12.7258C12.9435 10.8387 13.1613 11.0565 13.1613 11.2742V14.9032H13.5968C13.8145 14.9032 14.0323 15.121 14.0323 15.3387V16.2097Z" fill="#6E6E6E"/>
</svg>
