<svg width="148" height="100" viewBox="0 0 148 100" fill="none" xmlns="http://www.w3.org/2000/svg">
<g clip-path="url(#clip0_104_6587)">
<path d="M61.5852 31.079H69.1025L70.765 36.0337H74.6367L67.5795 15.9714H63.1174L56.0479 36.0337H59.932L61.5867 31.079H61.5852ZM65.254 20.0927H65.4151L68.1264 28.1709H62.5566L65.254 20.0927Z" fill="#090912"/>
<path d="M81.7355 36.0338L87.0854 20.9805H83.3484L79.8934 32.1697H79.7323L76.2509 20.9805H72.4736L77.8095 36.0338H81.7355Z" fill="#090912"/>
<path d="M92.0317 20.9805H88.4961V36.0338H92.0317V20.9805Z" fill="#090912"/>
<path d="M90.2698 18.8656C90.826 18.8656 91.3048 18.6766 91.7076 18.3001C92.1104 17.9236 92.3118 17.465 92.3118 16.9258C92.3118 16.3867 92.1104 15.9435 91.7076 15.5655C91.3048 15.189 90.8245 15 90.2698 15C89.7152 15 89.2209 15.189 88.8181 15.5655C88.4153 15.942 88.2139 16.4006 88.2139 16.9382C88.2139 17.4758 88.4153 17.9205 88.8181 18.2985C89.2209 18.675 89.7059 18.864 90.2698 18.864V18.8656Z" fill="#090912"/>
<path d="M105.997 34.0275C106.544 33.3008 106.816 32.4658 106.816 31.5238C106.816 30.4563 106.466 29.5855 105.767 28.9116C105.069 28.2376 104.015 27.7542 102.608 27.4583L100.041 26.9191C99.2789 26.7487 98.7351 26.5225 98.4082 26.239C98.0813 25.957 97.917 25.5945 97.917 25.1545C97.917 24.6525 98.1649 24.2388 98.6638 23.9165C99.1611 23.5927 99.7778 23.4316 100.512 23.4316C101.327 23.4316 101.959 23.6222 102.407 24.0033C102.855 24.3844 103.146 24.8229 103.281 25.3156L106.494 24.9794C106.252 23.7043 105.626 22.6879 104.619 21.9303C103.611 21.1727 102.224 20.7931 100.459 20.7931C99.2587 20.7931 98.2006 20.9821 97.2864 21.3586C96.3723 21.7351 95.6596 22.265 95.1499 22.9482C94.6386 23.6299 94.3845 24.4387 94.3845 25.3714C94.3845 26.4667 94.73 27.3669 95.4195 28.0719C96.1089 28.7768 97.1764 29.2865 98.6189 29.5995L101.186 30.1387C102.531 30.4439 103.202 31.0187 103.202 31.8615C103.202 32.3651 102.946 32.788 102.436 33.1335C101.925 33.479 101.248 33.6525 100.407 33.6525C99.5655 33.6525 98.9396 33.4806 98.4237 33.1335C97.9077 32.788 97.5746 32.2783 97.4228 31.6059L93.9678 31.9297C94.1924 33.3117 94.8617 34.3916 95.9773 35.1678C97.0928 35.944 98.5693 36.3329 100.407 36.3329C101.662 36.3329 102.77 36.1315 103.733 35.7271C104.697 35.3227 105.451 34.7572 105.998 34.0306L105.997 34.0275Z" fill="#090912"/>
<path d="M70.6586 40.3098L65.456 56.0898H65.2406L60.0395 40.3098H56.0469L63.118 60.3721H67.5801L74.6373 40.3098H70.6586Z" fill="#090912"/>
<path d="M78.9121 43.4473H81.4794L84.1953 39.4749H80.7806L78.9121 43.4473Z" fill="#090912"/>
<path d="M85.1955 46.9472C84.5541 46.3275 83.8197 45.8705 82.9908 45.5745C82.1619 45.2786 81.2865 45.1299 80.3631 45.1299C78.9285 45.1299 77.6843 45.4583 76.6262 46.1122C75.568 46.7675 74.7484 47.6816 74.1658 48.8529C73.5833 50.0242 73.292 51.3861 73.292 52.9401C73.292 54.494 73.5848 55.8745 74.172 57.0334C74.7592 58.1923 75.5989 59.0863 76.6928 59.7199C77.7866 60.3521 79.0849 60.6697 80.5909 60.6697C81.756 60.6697 82.7878 60.4931 83.6896 60.1383C84.5897 59.7835 85.3288 59.2815 85.9067 58.6308C86.4846 57.98 86.8812 57.2193 87.0965 56.3486L83.7903 55.9582C83.6291 56.3889 83.3983 56.7514 83.0977 57.0427C82.7971 57.334 82.4392 57.5524 82.0225 57.695C81.6057 57.8391 81.1471 57.9103 80.6451 57.9103C79.8736 57.9103 79.1996 57.7399 78.6217 57.399C78.0438 57.0582 77.596 56.5624 77.2769 55.9117C76.9902 55.326 76.8338 54.6319 76.8059 53.8309H87.2577V52.7263C87.2577 51.4062 87.0733 50.269 86.7061 49.3131C86.3389 48.3571 85.8338 47.5701 85.194 46.9503L85.1955 46.9472ZM78.4404 48.4284C78.978 48.069 79.6272 47.8892 80.3895 47.8892C81.1518 47.8892 81.787 48.069 82.2983 48.4284C82.8095 48.7879 83.1938 49.2836 83.4541 49.9158C83.64 50.3682 83.7577 50.8779 83.8104 51.4434H76.8198C76.8663 50.8779 76.9964 50.3542 77.2164 49.8755C77.4938 49.2697 77.9028 48.7879 78.4404 48.4284Z" fill="#090912"/>
<path d="M96.4669 45.116C95.607 45.116 94.8401 45.3515 94.1677 45.8225C93.4953 46.2935 93.0258 46.969 92.7562 47.849H92.5951V45.3174H89.168V60.3707H92.7035V51.5379C92.7035 50.8919 92.8492 50.3264 93.1405 49.8414C93.4317 49.3565 93.833 48.9754 94.3443 48.6965C94.8556 48.4191 95.4381 48.2797 96.0919 48.2797C96.3879 48.2797 96.6962 48.2983 97.02 48.3339C97.3422 48.3696 97.5793 48.4145 97.7327 48.4687V45.2105C97.5715 45.1841 97.367 45.1609 97.1207 45.1439C96.8743 45.1268 96.6574 45.1175 96.4684 45.1175L96.4669 45.116Z" fill="#090912"/>
<path d="M100.835 39.34C100.271 39.34 99.7864 39.5291 99.3835 39.9056C98.9807 40.282 98.7793 40.7406 98.7793 41.2783C98.7793 41.8159 98.9807 42.2605 99.3835 42.6386C99.7864 43.0151 100.271 43.2041 100.835 43.2041C101.399 43.2041 101.87 43.0151 102.273 42.6386C102.676 42.2621 102.877 41.8035 102.877 41.2643C102.877 40.7252 102.676 40.282 102.273 39.904C101.87 39.5275 101.39 39.3385 100.835 39.3385V39.34Z" fill="#090912"/>
<path d="M102.597 45.319H99.0615V60.3723H102.597V45.319Z" fill="#090912"/>
<path d="M110.876 39.3679C110.016 39.3679 109.229 39.5337 108.517 39.8668C107.804 40.1984 107.237 40.7019 106.815 41.3743C106.394 42.0483 106.183 42.8911 106.183 43.9059V45.3205H103.979V48.0674H106.183V60.3738H109.705V48.0674H112.838V45.3205H109.705V44.1616C109.705 43.5697 109.846 43.1111 110.128 42.7888C110.41 42.465 110.878 42.3039 111.533 42.3039C111.82 42.3039 112.075 42.3287 112.3 42.3783C112.525 42.4278 112.707 42.479 112.852 42.5332L113.577 39.7862C113.352 39.7057 113 39.6158 112.522 39.5167C112.043 39.4175 111.493 39.3679 110.875 39.3679H110.876Z" fill="#090912"/>
<path d="M118.135 45.319H114.6V60.3723H118.135V45.319Z" fill="#090912"/>
<path d="M116.373 39.34C115.809 39.34 115.324 39.5291 114.922 39.9056C114.519 40.282 114.317 40.7406 114.317 41.2783C114.317 41.8159 114.519 42.2605 114.922 42.6386C115.324 43.0151 115.809 43.2041 116.373 43.2041C116.937 43.2041 117.408 43.0151 117.811 42.6386C118.214 42.2621 118.415 41.8035 118.415 41.2643C118.415 40.7252 118.214 40.282 117.811 39.904C117.408 39.5275 116.928 39.3385 116.373 39.3385V39.34Z" fill="#090912"/>
<path d="M131 39.4749H127.585L125.717 43.4473H128.284L131 39.4749Z" fill="#090912"/>
<path d="M131.999 46.9472C131.358 46.3275 130.623 45.8705 129.795 45.5745C128.966 45.2786 128.09 45.1299 127.167 45.1299C125.732 45.1299 124.487 45.4583 123.43 46.1122C122.372 46.7675 121.552 47.6816 120.97 48.8529C120.387 50.0242 120.096 51.3861 120.096 52.9401C120.096 54.494 120.389 55.8745 120.976 57.0334C121.563 58.1923 122.403 59.0863 123.496 59.7199C124.59 60.3521 125.889 60.6697 127.395 60.6697C128.56 60.6697 129.592 60.4931 130.493 60.1383C131.393 59.7835 132.132 59.2815 132.71 58.6308C133.288 57.98 133.685 57.2193 133.9 56.3486L130.594 55.9582C130.433 56.3889 130.202 56.7514 129.901 57.0427C129.601 57.334 129.243 57.5524 128.826 57.695C128.409 57.8391 127.951 57.9103 127.449 57.9103C126.677 57.9103 126.003 57.7399 125.425 57.399C124.848 57.0582 124.4 56.5624 124.081 55.9117C123.794 55.326 123.637 54.6319 123.61 53.8309H134.061V52.7263C134.061 51.4062 133.877 50.269 133.51 49.3131C133.143 48.3571 132.638 47.5701 131.998 46.9503L131.999 46.9472ZM125.244 48.4284C125.782 48.069 126.431 47.8892 127.193 47.8892C127.955 47.8892 128.591 48.069 129.102 48.4284C129.613 48.7879 129.997 49.2836 130.258 49.9158C130.444 50.3682 130.561 50.8779 130.614 51.4434H123.624C123.67 50.8779 123.8 50.3542 124.02 49.8755C124.297 49.2697 124.707 48.7879 125.243 48.4284H125.244Z" fill="#090912"/>
<path d="M147.1 53.2484C146.402 52.5744 145.348 52.091 143.941 51.7951L141.374 51.2559C140.612 51.0855 140.068 50.8593 139.741 50.5758C139.414 50.2938 139.25 49.9313 139.25 49.4913C139.25 48.9893 139.498 48.5756 139.997 48.2533C140.494 47.9295 141.111 47.7684 141.845 47.7684C142.66 47.7684 143.292 47.959 143.74 48.3401C144.188 48.7212 144.479 49.1597 144.614 49.6524L147.827 49.3162C147.585 48.0411 146.96 47.0247 145.952 46.2671C144.944 45.5079 143.557 45.1299 141.792 45.1299C140.592 45.1299 139.534 45.3189 138.619 45.6954C137.705 46.0719 136.993 46.6017 136.483 47.285C135.972 47.9667 135.718 48.7755 135.718 49.7082C135.718 50.8035 136.063 51.7037 136.753 52.4086C137.442 53.1136 138.509 53.6233 139.952 53.9363L142.519 54.4755C143.864 54.7807 144.535 55.3555 144.535 56.1983C144.535 56.7018 144.279 57.1248 143.769 57.4703C143.258 57.8158 142.583 57.9893 141.74 57.9893C140.897 57.9893 140.273 57.8174 139.757 57.4703C139.241 57.1248 138.908 56.6151 138.756 55.9427L135.301 56.2665C135.525 57.6485 136.195 58.7284 137.31 59.5046C138.426 60.2808 139.902 60.6697 141.74 60.6697C142.995 60.6697 144.103 60.4683 145.066 60.0639C146.03 59.6595 146.784 59.094 147.331 58.3674C147.878 57.6407 148.151 56.8056 148.151 55.8637C148.151 54.7946 147.801 53.9254 147.102 53.2515L147.1 53.2484Z" fill="#090912"/>
<path d="M95.6139 78.2655C95.4016 78.0951 95.1646 77.9525 94.9012 77.8379C94.6378 77.7248 94.3636 77.6334 94.0785 77.5652L93.3735 77.387C93.1675 77.3328 92.9645 77.2646 92.7662 77.1841C92.5679 77.1019 92.4052 76.995 92.2782 76.8618C92.1511 76.7286 92.0876 76.5566 92.0876 76.3459C92.0876 76.1553 92.1418 75.9864 92.2503 75.8377C92.3587 75.689 92.5152 75.5712 92.7197 75.4875C92.9242 75.4023 93.169 75.3605 93.4526 75.3605C93.8616 75.3605 94.1931 75.4488 94.4457 75.627C94.6982 75.8052 94.8408 76.0561 94.8748 76.3815H96.1995C96.1887 75.9539 96.0694 75.5758 95.8385 75.2474C95.6077 74.9189 95.2901 74.6602 94.8841 74.4743C94.4782 74.2884 94.0057 74.1938 93.468 74.1938C92.9304 74.1938 92.4672 74.2868 92.0489 74.4743C91.6305 74.6602 91.3021 74.9205 91.0619 75.2551C90.8218 75.5898 90.7009 75.9802 90.7009 76.428C90.7009 76.9734 90.8807 77.4103 91.2386 77.7372C91.598 78.0641 92.0876 78.3073 92.7104 78.4669L93.5688 78.69C93.843 78.7582 94.0816 78.8356 94.2845 78.924C94.4875 79.0123 94.6471 79.1192 94.7617 79.2462C94.8764 79.3733 94.9337 79.5359 94.9337 79.7312C94.9337 79.9481 94.8686 80.1386 94.7401 80.3013C94.6115 80.464 94.4333 80.591 94.2071 80.6825C93.9809 80.7739 93.7175 80.8203 93.42 80.8203C93.1225 80.8203 92.8778 80.777 92.6454 80.6886C92.413 80.6003 92.227 80.4686 92.0845 80.2951C91.942 80.12 91.8614 79.9016 91.8412 79.6367H90.4902C90.5104 80.1386 90.6421 80.5647 90.8869 80.9148C91.1301 81.265 91.4694 81.533 91.9017 81.7159C92.3355 81.8987 92.8452 81.9901 93.4355 81.9901C94.0258 81.9901 94.5526 81.8956 94.9786 81.705C95.4047 81.5144 95.7316 81.2511 95.9578 80.9148C96.184 80.5771 96.2987 80.1882 96.2987 79.7482C96.2987 79.4197 96.2367 79.1331 96.1128 78.8883C95.9888 78.6451 95.8215 78.4359 95.6108 78.2655H95.6139Z" fill="#090913"/>
<path d="M102.099 76.1878H100.536L98.4999 78.4715H98.4023V74.296H97.0684V81.8738H98.4023V79.9681L98.8888 79.4444L100.627 81.8738H102.226L99.899 78.645L102.099 76.1878Z" fill="#090913"/>
<path d="M106.608 76.8029C106.367 76.569 106.089 76.3955 105.776 76.2839C105.464 76.1724 105.132 76.1166 104.783 76.1166C104.241 76.1166 103.772 76.2405 103.372 76.4884C102.972 76.7363 102.662 77.0803 102.442 77.5234C102.222 77.9665 102.112 78.4809 102.112 79.0665C102.112 79.6522 102.222 80.1758 102.445 80.6127C102.667 81.0496 102.985 81.389 103.397 81.6276C103.809 81.8661 104.3 81.9854 104.869 81.9854C105.309 81.9854 105.699 81.9188 106.038 81.784C106.379 81.6508 106.658 81.4602 106.877 81.2139C107.095 80.9675 107.245 80.6809 107.326 80.3524L106.077 80.2053C106.017 80.3679 105.928 80.5043 105.815 80.6143C105.702 80.7243 105.566 80.8064 105.409 80.8606C105.251 80.9149 105.078 80.9412 104.889 80.9412C104.597 80.9412 104.343 80.8761 104.125 80.7475C103.906 80.6189 103.738 80.4315 103.617 80.1851C103.508 79.9636 103.449 79.7017 103.439 79.3996H107.386V78.9828C107.386 78.484 107.317 78.0548 107.179 77.6938C107.039 77.3328 106.849 77.0353 106.607 76.8014L106.608 76.8029ZM104.057 77.3622C104.26 77.2274 104.504 77.1593 104.793 77.1593C105.081 77.1593 105.321 77.2274 105.513 77.3622C105.707 77.4986 105.851 77.6845 105.95 77.9246C106.02 78.0951 106.065 78.2887 106.085 78.5025H103.445C103.462 78.2887 103.511 78.0904 103.595 77.9107C103.7 77.6814 103.854 77.5001 104.057 77.3638V77.3622Z" fill="#090913"/>
<path d="M112.361 76.8029C112.12 76.569 111.842 76.3955 111.529 76.2839C111.216 76.1724 110.885 76.1166 110.536 76.1166C109.994 76.1166 109.525 76.2405 109.125 76.4884C108.725 76.7363 108.415 77.0803 108.195 77.5234C107.975 77.9665 107.865 78.4809 107.865 79.0665C107.865 79.6522 107.977 80.1758 108.198 80.6127C108.42 81.0496 108.738 81.389 109.15 81.6276C109.563 81.8661 110.053 81.9854 110.622 81.9854C111.062 81.9854 111.452 81.9188 111.791 81.784C112.132 81.6508 112.411 81.4602 112.629 81.2139C112.848 80.9675 112.998 80.6809 113.079 80.3524L111.83 80.2053C111.77 80.3679 111.681 80.5043 111.568 80.6143C111.455 80.7243 111.319 80.8064 111.162 80.8606C111.004 80.9149 110.831 80.9412 110.642 80.9412C110.35 80.9412 110.096 80.8761 109.878 80.7475C109.659 80.6189 109.49 80.4315 109.37 80.1851C109.261 79.9636 109.202 79.7017 109.191 79.3996H113.139V78.9828C113.139 78.484 113.069 78.0548 112.932 77.6938C112.792 77.3328 112.602 77.0353 112.36 76.8014L112.361 76.8029ZM109.81 77.3622C110.013 77.2274 110.257 77.1593 110.546 77.1593C110.834 77.1593 111.074 77.2274 111.266 77.3622C111.46 77.4986 111.604 77.6845 111.703 77.9246C111.773 78.0951 111.818 78.2887 111.838 78.5025H109.198C109.215 78.2887 109.264 78.0904 109.348 77.9107C109.453 77.6814 109.607 77.5001 109.81 77.3638V77.3622Z" fill="#090913"/>
<path d="M118.06 76.4528C117.709 76.2297 117.314 76.1166 116.877 76.1166C116.542 76.1166 116.266 76.1724 116.052 76.2839C115.837 76.3955 115.667 76.5302 115.543 76.6883C115.417 76.8463 115.321 76.9919 115.253 77.1283H115.172V76.1878H113.863V83.9996H115.199V80.9737H115.255C115.323 81.1132 115.422 81.2588 115.552 81.4137C115.682 81.5687 115.854 81.7004 116.07 81.8104C116.285 81.9204 116.553 81.9762 116.874 81.9762C117.32 81.9762 117.721 81.8615 118.074 81.6322C118.428 81.4029 118.706 81.0698 118.909 80.6329C119.112 80.196 119.215 79.6645 119.215 79.0417C119.215 78.4189 119.111 77.8735 118.902 77.4397C118.694 77.0059 118.414 76.6774 118.062 76.4528H118.06ZM117.695 79.9822C117.593 80.2595 117.444 80.4795 117.245 80.6375C117.047 80.7971 116.801 80.8761 116.506 80.8761C116.212 80.8761 115.98 80.7987 115.78 80.6453C115.58 80.4903 115.428 80.2765 115.326 79.9992C115.222 79.7234 115.171 79.4012 115.171 79.0355C115.171 78.6699 115.222 78.3445 115.326 78.0718C115.43 77.7992 115.58 77.5884 115.778 77.4382C115.977 77.2894 116.22 77.2151 116.506 77.2151C116.793 77.2151 117.052 77.2925 117.247 77.449C117.444 77.6055 117.593 77.8208 117.693 78.0951C117.795 78.3693 117.845 78.6838 117.845 79.0355C117.845 79.3872 117.794 79.7033 117.693 79.9822H117.695Z" fill="#090913"/>
<path d="M124.207 76.8029C123.965 76.569 123.688 76.3955 123.375 76.2839C123.062 76.1724 122.731 76.1166 122.382 76.1166C121.84 76.1166 121.37 76.2405 120.971 76.4884C120.571 76.7363 120.261 77.0803 120.041 77.5234C119.821 77.9665 119.711 78.4809 119.711 79.0665C119.711 79.6522 119.822 80.1758 120.044 80.6127C120.266 81.0496 120.583 81.389 120.995 81.6276C121.407 81.8661 121.899 81.9854 122.467 81.9854C122.907 81.9854 123.298 81.9188 123.637 81.784C123.978 81.6508 124.257 81.4602 124.475 81.2139C124.694 80.9675 124.844 80.6809 124.924 80.3524L123.676 80.2053C123.615 80.3679 123.527 80.5043 123.414 80.6143C123.301 80.7243 123.164 80.8064 123.008 80.8606C122.85 80.9149 122.676 80.9412 122.487 80.9412C122.196 80.9412 121.942 80.8761 121.724 80.7475C121.505 80.6189 121.336 80.4315 121.215 80.1851C121.107 79.9636 121.048 79.7017 121.037 79.3996H124.985V78.9828C124.985 78.484 124.915 78.0548 124.777 77.6938C124.638 77.3328 124.447 77.0353 124.206 76.8014L124.207 76.8029ZM121.655 77.3622C121.858 77.2274 122.103 77.1593 122.391 77.1593C122.679 77.1593 122.92 77.2274 123.112 77.3622C123.305 77.4986 123.449 77.6845 123.549 77.9246C123.618 78.0951 123.663 78.2887 123.683 78.5025H121.043C121.06 78.2887 121.11 78.0904 121.194 77.9107C121.299 77.6814 121.452 77.5001 121.655 77.3638V77.3622Z" fill="#090913"/>
<path d="M128.464 76.1121C128.139 76.1121 127.851 76.2004 127.597 76.3785C127.343 76.5567 127.164 76.8124 127.064 77.1439H127.003V76.188H125.708V81.874H127.044V78.5383C127.044 78.2935 127.098 78.0813 127.208 77.8969C127.318 77.7141 127.47 77.57 127.662 77.4646C127.855 77.3593 128.074 77.3066 128.322 77.3066C128.433 77.3066 128.549 77.3128 128.672 77.3267C128.794 77.3407 128.883 77.3577 128.941 77.3779V76.1477C128.881 76.1368 128.804 76.1291 128.711 76.1229C128.618 76.1167 128.536 76.1121 128.464 76.1121Z" fill="#090913"/>
<path d="M133.647 79.1827C133.383 78.9287 132.985 78.7458 132.454 78.6343L131.484 78.4313C131.196 78.3662 130.991 78.281 130.867 78.1741C130.743 78.0672 130.681 77.9309 130.681 77.7651C130.681 77.5745 130.776 77.4196 130.963 77.2972C131.151 77.1748 131.383 77.1144 131.662 77.1144C131.971 77.1144 132.209 77.1857 132.378 77.3297C132.547 77.4738 132.657 77.6396 132.708 77.8255L133.921 77.6985C133.83 77.2166 133.594 76.8324 133.213 76.5473C132.832 76.2607 132.308 76.1182 131.642 76.1182C131.188 76.1182 130.788 76.1894 130.444 76.332C130.099 76.4745 129.831 76.6744 129.637 76.9316C129.444 77.1888 129.347 77.494 129.347 77.8472C129.347 78.2609 129.478 78.6002 129.738 78.8667C129.998 79.1332 130.401 79.3253 130.946 79.4446L131.916 79.6475C132.424 79.7622 132.677 79.9791 132.677 80.2983C132.677 80.4888 132.581 80.6484 132.387 80.7786C132.194 80.9087 131.938 80.9738 131.62 80.9738C131.303 80.9738 131.066 80.9087 130.872 80.7786C130.677 80.6484 130.551 80.4563 130.494 80.2006L129.189 80.323C129.275 80.8452 129.527 81.2526 129.949 81.5455C130.37 81.8383 130.928 81.9855 131.622 81.9855C132.096 81.9855 132.514 81.9096 132.878 81.7562C133.243 81.6028 133.528 81.3905 133.734 81.1148C133.94 80.8405 134.044 80.5245 134.044 80.1681C134.044 79.7653 133.912 79.4353 133.647 79.1812V79.1827Z" fill="#090913"/>
<path d="M84.7905 76.1243C85.878 76.1243 86.7597 75.2427 86.7597 74.1551C86.7597 73.0676 85.878 72.1859 84.7905 72.1859C83.7029 72.1859 82.8213 73.0676 82.8213 74.1551C82.8213 75.2427 83.7029 76.1243 84.7905 76.1243Z" fill="#0073FF"/>
<path d="M76.9145 83.9994C78.0021 83.9994 78.8837 83.1178 78.8837 82.0302C78.8837 80.9427 78.0021 80.061 76.9145 80.061C75.827 80.061 74.9453 80.9427 74.9453 82.0302C74.9453 83.1178 75.827 83.9994 76.9145 83.9994Z" fill="#0073FF"/>
<path d="M82.8221 72.1859H78.8837C76.7084 72.1859 74.9453 73.9491 74.9453 76.1243C74.9453 78.2996 76.7084 80.0627 78.8837 80.0627V76.1243H82.8221V72.1859Z" fill="#0073FF"/>
<path d="M82.8222 76.1228V80.0612H78.8838V83.9996H82.8222C84.9974 83.9996 86.7606 82.2365 86.7606 80.0612C86.7606 77.8859 84.9974 76.1228 82.8222 76.1228Z" fill="#0073FF"/>
<path d="M63.0361 81.9745C62.7138 81.9745 62.4458 81.9187 62.2304 81.8087C62.0151 81.6987 61.8415 81.567 61.7114 81.4121C61.5813 81.2571 61.4821 81.1115 61.4139 80.9721H61.3318V81.8722H60.0195V74.2944H61.3566V77.1282H61.4124C61.4805 76.9918 61.5766 76.8462 61.7021 76.6882C61.8276 76.5301 61.998 76.3953 62.2134 76.2838C62.4287 76.1722 62.7045 76.1164 63.0392 76.1164C63.4761 76.1164 63.8712 76.228 64.2244 76.4527C64.5777 76.6758 64.8581 77.0058 65.0657 77.4396C65.2749 77.8734 65.3787 78.4079 65.3787 79.0416C65.3787 79.6753 65.2764 80.1958 65.0735 80.6343C64.8705 81.0712 64.5916 81.4043 64.2368 81.6336C63.882 81.8629 63.4823 81.9776 63.0345 81.9776L63.0361 81.9745ZM62.6704 80.876C62.9648 80.876 63.2127 80.797 63.411 80.6374C63.6093 80.4778 63.7596 80.2594 63.8619 79.982C63.9641 79.7047 64.0137 79.3886 64.0137 79.0354C64.0137 78.6821 63.9626 78.3692 63.8619 78.0949C63.7596 77.8207 63.6109 77.6054 63.4141 77.4489C63.2174 77.2924 62.9695 77.2149 62.672 77.2149C62.3745 77.2149 62.1406 77.2893 61.9423 77.438C61.7439 77.5868 61.5937 77.799 61.4898 78.0717C61.386 78.3444 61.3349 78.6666 61.3349 79.0354C61.3349 79.4041 61.386 79.7233 61.4898 79.9991C61.5937 80.2749 61.7455 80.4902 61.9453 80.6451C62.1452 80.8001 62.3885 80.876 62.672 80.876H62.6704Z" fill="#090913"/>
<path d="M66.7635 83.9994C66.5807 84.0025 66.4118 83.9901 66.2569 83.9607C66.1019 83.9313 65.978 83.8987 65.8835 83.8615L66.1995 82.8189L66.2661 82.839C66.5373 82.9103 66.7681 82.9149 66.9603 82.8545C67.1524 82.7941 67.3058 82.6081 67.4204 82.2998L67.532 81.9946L65.4775 76.1862H66.8967L68.2044 80.484H68.2648L69.5771 76.1862H71.0056L68.7265 82.5586C68.6211 82.8607 68.4817 83.1194 68.3097 83.3348C68.1362 83.5501 67.9239 83.7144 67.6683 83.8275C67.4142 83.9406 67.1121 83.9979 66.7635 83.9979V83.9994Z" fill="#090913"/>
<path d="M11.3055 22.2633C5.06167 22.2633 0 27.325 0 33.5688H18.9375L22.6109 22.2633H11.3055Z" fill="#0073FF"/>
<path d="M34.6787 22.8163C32.7498 16.8777 26.3712 13.6288 20.4326 15.5577L26.2844 33.5687H38.1725L34.6787 22.8163Z" fill="#0073FF"/>
<path d="M41.3744 45.2167C46.4253 41.5463 47.5454 34.4767 43.8751 29.4243L28.5537 40.5563L32.2272 51.8617L41.3729 45.2167H41.3744Z" fill="#0073FF"/>
<path d="M22.1418 58.5083C27.1926 62.1787 34.2638 61.0585 37.9341 56.0077L22.6128 44.8757L12.9961 51.8632L22.1418 58.5083Z" fill="#0073FF"/>
<path d="M3.55718 44.3211C1.62826 50.2597 4.87721 56.6383 10.8158 58.5672L16.6676 40.5562L7.05092 33.5687L3.55718 44.3211Z" fill="#0073FF"/>
</g>
<defs>
<clipPath id="clip0_104_6587">
<rect width="148" height="100" fill="white"/>
</clipPath>
</defs>
</svg>
