<svg width="24" height="24" viewBox="0 0 24 24" fill="none" xmlns="http://www.w3.org/2000/svg" aria-hidden="true">
<path d="M5.50778 5.43358L8.35148 4.77733C8.65228 4.6953 8.98038 4.85936 9.11708 5.16014L10.4296 8.22264C10.539 8.49608 10.457 8.79686 10.2382 8.98827L8.57028 10.3555C9.55458 12.4336 11.2773 14.1836 13.4101 15.1953L14.7773 13.5273C14.9687 13.3086 15.2694 13.2266 15.5429 13.3359L18.6054 14.6484C18.9062 14.7851 19.0429 15.1133 18.9882 15.4141L18.3319 18.2578C18.2499 18.5586 18.0038 18.75 17.6757 18.75C10.6757 18.75 4.98818 13.0898 4.98818 6.06249C4.98818 5.76171 5.20698 5.51561 5.50778 5.43358Z" fill="#333333"></path>
</svg>