<svg width="123" height="59" viewBox="0 0 123 59" fill="none" xmlns="http://www.w3.org/2000/svg" aria-hidden="true">
<path d="M51.6573 15.1483H57.6948L59.03 19.1293H62.1396L56.4716 3.01001H52.8879L47.21 19.1293H50.3295L51.6585 15.1483H51.6573ZM54.6039 6.32124H54.7333L56.9109 12.8118H52.4375L54.6039 6.32124Z" fill="white"></path>
<path d="M67.8401 19.1293L72.1368 7.03455H69.1354L66.3605 16.0247H66.2311L63.4351 7.03455H60.4014L64.6869 19.1293H67.8401Z" fill="white"></path>
<path d="M76.1101 7.03455H73.2705V19.1293H76.1101V7.03455Z" fill="white"></path>
<path d="M74.6952 5.33533C75.1419 5.33533 75.5264 5.18346 75.8499 4.88097C76.1735 4.57848 76.3352 4.21001 76.3352 3.77681C76.3352 3.34361 76.1735 2.98759 75.8499 2.68385C75.5264 2.38136 75.1407 2.22949 74.6952 2.22949C74.2497 2.22949 73.8528 2.38136 73.5292 2.68385C73.2057 2.98635 73.0439 3.35481 73.0439 3.78677C73.0439 4.21872 73.2057 4.57599 73.5292 4.87973C73.8528 5.18222 74.2423 5.33409 74.6952 5.33409V5.33533Z" fill="white"></path>
<path d="M87.3271 17.5172C87.7664 16.9334 87.9854 16.2624 87.9854 15.5056C87.9854 14.6479 87.7042 13.9483 87.143 13.4068C86.5818 12.8653 85.7356 12.4769 84.6057 12.2391L82.5439 11.806C81.9316 11.669 81.4949 11.4873 81.2323 11.2595C80.9698 11.0329 80.8379 10.7416 80.8379 10.3881C80.8379 9.98477 81.037 9.6524 81.4376 9.39348C81.8371 9.13331 82.3323 9.00385 82.9221 9.00385C83.5767 9.00385 84.0844 9.15696 84.444 9.46319C84.8036 9.76942 85.0375 10.1217 85.1458 10.5176L87.7266 10.2474C87.5324 9.22294 87.0297 8.40633 86.2209 7.79761C85.4108 7.18889 84.2971 6.88391 82.8798 6.88391C81.9155 6.88391 81.0656 7.03578 80.3314 7.33827C79.5972 7.64077 79.0248 8.0665 78.6155 8.61546C78.2048 9.16319 78.0007 9.81299 78.0007 10.5624C78.0007 11.4425 78.2782 12.1657 78.832 12.7321C79.3857 13.2985 80.2431 13.708 81.4015 13.9595L83.4634 14.3927C84.5435 14.6379 85.0823 15.0998 85.0823 15.7769C85.0823 16.1815 84.877 16.5213 84.4676 16.7989C84.057 17.0765 83.5132 17.216 82.8375 17.216C82.1618 17.216 81.6591 17.0778 81.2448 16.7989C80.8304 16.5213 80.5629 16.1118 80.4409 15.5715L77.666 15.8317C77.8464 16.9421 78.384 17.8097 79.2799 18.4334C80.1759 19.0571 81.3617 19.3695 82.8375 19.3695C83.8454 19.3695 84.7351 19.2077 85.5091 18.8828C86.2831 18.5579 86.8891 18.1035 87.3284 17.5197L87.3271 17.5172Z" fill="white"></path>
<path d="M58.9444 22.5649L54.7659 35.2435H54.5929L50.4157 22.5649H47.209L52.8869 38.6842H56.4719L62.1399 22.5649H58.9444Z" fill="white"></path>
<path d="M65.5732 25.0858H67.6351L69.8152 21.894H67.0739L65.5732 25.0858Z" fill="white"></path>
<path d="M70.6199 27.8978C70.1047 27.3999 69.5149 27.0326 68.8492 26.7949C68.1835 26.5571 67.4804 26.4376 66.7388 26.4376C65.5865 26.4376 64.5873 26.7015 63.7374 27.2268C62.8875 27.7534 62.2293 28.4878 61.7614 29.4289C61.2935 30.37 61.0596 31.4642 61.0596 32.7128C61.0596 33.9613 61.2948 35.0705 61.7664 36.0016C62.238 36.9327 62.9124 37.651 63.7909 38.1601C64.6694 38.668 65.7122 38.9232 66.9217 38.9232C67.8574 38.9232 68.6862 38.7813 69.4104 38.4962C70.1333 38.2112 70.7269 37.8079 71.191 37.285C71.6552 36.7622 71.9737 36.151 72.1467 35.4514L69.4913 35.1377C69.3619 35.4838 69.1764 35.7751 68.935 36.0091C68.6936 36.2431 68.4062 36.4186 68.0715 36.5332C67.7367 36.6489 67.3684 36.7062 66.9652 36.7062C66.3456 36.7062 65.8043 36.5693 65.3401 36.2954C64.876 36.0215 64.5164 35.6232 64.26 35.1004C64.0298 34.6298 63.9041 34.0721 63.8817 33.4286H72.2761V32.541C72.2761 31.4804 72.128 30.5667 71.8331 29.7987C71.5382 29.0306 71.1326 28.3982 70.6186 27.9003L70.6199 27.8978ZM65.1945 29.0879C65.6263 28.7991 66.1477 28.6547 66.7599 28.6547C67.3721 28.6547 67.8823 28.7991 68.293 29.0879C68.7036 29.3767 69.0122 29.775 69.2212 30.2829C69.3706 30.6464 69.4651 31.0559 69.5074 31.5103H63.8929C63.9303 31.0559 64.0348 30.6352 64.2115 30.2505C64.4342 29.7638 64.7627 29.3767 65.1945 29.0879Z" fill="white"></path>
<path d="M79.6717 26.4264C78.9811 26.4264 78.3651 26.6156 77.8251 26.994C77.285 27.3725 76.908 27.9152 76.6915 28.6223H76.5621V26.5882H73.8096V38.6829H76.6492V31.5862C76.6492 31.0671 76.7661 30.6127 77.0001 30.2231C77.234 29.8335 77.5563 29.5273 77.9669 29.3032C78.3776 29.0804 78.8454 28.9683 79.3706 28.9683C79.6082 28.9683 79.8559 28.9833 80.1159 29.0119C80.3748 29.0405 80.5651 29.0766 80.6883 29.1202V26.5023C80.5589 26.4812 80.3947 26.4625 80.1968 26.4488C79.999 26.4351 79.8248 26.4276 79.6729 26.4276L79.6717 26.4264Z" fill="white"></path>
<path d="M83.1805 21.7857C82.7276 21.7857 82.3381 21.9375 82.0146 22.24C81.6911 22.5425 81.5293 22.911 81.5293 23.3429C81.5293 23.7749 81.6911 24.1322 82.0146 24.4359C82.3381 24.7384 82.7276 24.8903 83.1805 24.8903C83.6335 24.8903 84.0118 24.7384 84.3353 24.4359C84.6588 24.1334 84.8206 23.7649 84.8206 23.3317C84.8206 22.8985 84.6588 22.5425 84.3353 22.2388C84.0118 21.9363 83.626 21.7844 83.1805 21.7844V21.7857Z" fill="white"></path>
<path d="M84.5955 26.5895H81.7559V38.6842H84.5955V26.5895Z" fill="white"></path>
<path d="M91.2449 21.8081C90.5543 21.8081 89.9222 21.9413 89.3498 22.2089C88.7774 22.4753 88.3219 22.8799 87.9835 23.4202C87.645 23.9617 87.4758 24.6388 87.4758 25.4542V26.5907H85.7051V28.7978H87.4758V38.6854H90.3042V28.7978H92.8203V26.5907H90.3042V25.6596C90.3042 25.1841 90.4174 24.8156 90.6439 24.5567C90.8704 24.2965 91.2462 24.167 91.7725 24.167C92.0027 24.167 92.208 24.187 92.3885 24.2268C92.5689 24.2666 92.7157 24.3077 92.8315 24.3513L93.4138 22.1442C93.2334 22.0795 92.9509 22.0073 92.5664 21.9276C92.1819 21.8479 91.7402 21.8081 91.2437 21.8081H91.2449Z" fill="white"></path>
<path d="M97.075 26.5895H94.2354V38.6842H97.075V26.5895Z" fill="white"></path>
<path d="M95.66 21.7857C95.2071 21.7857 94.8176 21.9375 94.4941 22.24C94.1706 22.5425 94.0088 22.911 94.0088 23.3429C94.0088 23.7749 94.1706 24.1322 94.4941 24.4359C94.8176 24.7384 95.2071 24.8903 95.66 24.8903C96.113 24.8903 96.4913 24.7384 96.8148 24.4359C97.1383 24.1334 97.3001 23.7649 97.3001 23.3317C97.3001 22.8985 97.1383 22.5425 96.8148 22.2388C96.4913 21.9363 96.1055 21.7844 95.66 21.7844V21.7857Z" fill="white"></path>
<path d="M107.406 21.894H104.664L103.163 25.0858H105.225L107.406 21.894Z" fill="white"></path>
<path d="M108.211 27.8978C107.696 27.3999 107.106 27.0326 106.44 26.7949C105.774 26.5571 105.071 26.4376 104.33 26.4376C103.177 26.4376 102.177 26.7015 101.328 27.2268C100.478 27.7534 99.8201 28.4878 99.3522 29.4289C98.8843 30.37 98.6504 31.4642 98.6504 32.7128C98.6504 33.9613 98.8856 35.0705 99.3572 36.0016C99.8288 36.9327 100.503 37.651 101.382 38.1601C102.26 38.668 103.303 38.9232 104.513 38.9232C105.448 38.9232 106.277 38.7813 107.001 38.4962C107.724 38.2112 108.318 37.8079 108.782 37.285C109.246 36.7622 109.565 36.151 109.738 35.4514L107.082 35.1377C106.953 35.4838 106.767 35.7751 106.526 36.0091C106.284 36.2431 105.997 36.4186 105.662 36.5332C105.328 36.6489 104.959 36.7062 104.556 36.7062C103.936 36.7062 103.395 36.5693 102.931 36.2954C102.467 36.0215 102.107 35.6232 101.851 35.1004C101.621 34.6298 101.495 34.0721 101.473 33.4286H109.867V32.541C109.867 31.4804 109.719 30.5667 109.424 29.7987C109.129 29.0306 108.723 28.3982 108.209 27.9003L108.211 27.8978ZM102.785 29.0879C103.217 28.7991 103.739 28.6547 104.351 28.6547C104.963 28.6547 105.473 28.7991 105.884 29.0879C106.294 29.3767 106.603 29.775 106.812 30.2829C106.961 30.6464 107.056 31.0559 107.098 31.5103H101.484C101.521 31.0559 101.626 30.6352 101.802 30.2505C102.025 29.7638 102.354 29.3767 102.784 29.0879H102.785Z" fill="white"></path>
<path d="M120.339 32.9605C119.778 32.419 118.932 32.0306 117.802 31.7929L115.74 31.3597C115.128 31.2227 114.691 31.041 114.429 30.8132C114.166 30.5866 114.034 30.2953 114.034 29.9418C114.034 29.5385 114.233 29.2061 114.634 28.9472C115.033 28.687 115.529 28.5576 116.118 28.5576C116.773 28.5576 117.281 28.7107 117.64 29.0169C118 29.3231 118.234 29.6754 118.342 30.0713L120.923 29.8011C120.729 28.7766 120.226 27.96 119.417 27.3513C118.607 26.7414 117.493 26.4376 116.076 26.4376C115.112 26.4376 114.262 26.5895 113.528 26.892C112.794 27.1945 112.221 27.6202 111.812 28.1692C111.401 28.7169 111.197 29.3667 111.197 30.1161C111.197 30.9962 111.475 31.7194 112.028 32.2858C112.582 32.8522 113.439 33.2618 114.598 33.5132L116.66 33.9464C117.74 34.1916 118.279 34.6535 118.279 35.3307C118.279 35.7352 118.073 36.0751 117.664 36.3527C117.253 36.6303 116.711 36.7697 116.034 36.7697C115.357 36.7697 114.855 36.6315 114.441 36.3527C114.027 36.0751 113.759 35.6655 113.637 35.1253L110.862 35.3854C111.043 36.4958 111.58 37.3635 112.476 37.9871C113.372 38.6108 114.558 38.9232 116.034 38.9232C117.042 38.9232 117.931 38.7614 118.705 38.4365C119.479 38.1116 120.085 37.6572 120.525 37.0734C120.964 36.4896 121.183 35.8186 121.183 35.0618C121.183 34.2028 120.902 33.5045 120.34 32.963L120.339 32.9605Z" fill="white"></path>
<path d="M78.9862 53.0607C78.8157 52.9238 78.6253 52.8093 78.4137 52.7171C78.2022 52.6263 77.982 52.5528 77.753 52.498L77.1868 52.3549C77.0213 52.3113 76.8583 52.2565 76.699 52.1918C76.5398 52.1258 76.4091 52.04 76.3071 51.9329C76.205 51.8258 76.154 51.6877 76.154 51.5184C76.154 51.3653 76.1976 51.2296 76.2847 51.1101C76.3718 50.9906 76.4975 50.896 76.6617 50.8287C76.826 50.7603 77.0226 50.7267 77.2503 50.7267C77.5788 50.7267 77.8451 50.7976 78.0479 50.9408C78.2507 51.0839 78.3652 51.2856 78.3926 51.547H79.4565C79.4478 51.2034 79.352 50.8997 79.1666 50.6358C78.9812 50.3719 78.7261 50.164 78.4001 50.0146C78.074 49.8652 77.6945 49.7893 77.2627 49.7893C76.8309 49.7893 76.4589 49.864 76.1229 50.0146C75.7869 50.164 75.5231 50.3731 75.3303 50.642C75.1374 50.9109 75.0403 51.2246 75.0403 51.5843C75.0403 52.0225 75.1847 52.3736 75.4721 52.6362C75.7608 52.8989 76.154 53.0943 76.6542 53.2225L77.3436 53.4018C77.5639 53.4566 77.7555 53.5188 77.9185 53.5898C78.0815 53.6607 78.2097 53.7466 78.3018 53.8487C78.3938 53.9508 78.4399 54.0815 78.4399 54.2383C78.4399 54.4126 78.3876 54.5657 78.2843 54.6964C78.1811 54.8271 78.038 54.9292 77.8563 55.0026C77.6746 55.0761 77.4631 55.1134 77.2242 55.1134C76.9852 55.1134 76.7886 55.0786 76.602 55.0076C76.4153 54.9367 76.266 54.8308 76.1515 54.6914C76.037 54.5508 75.9723 54.3752 75.9562 54.1624H74.8711C74.8873 54.5657 74.993 54.908 75.1896 55.1894C75.385 55.4707 75.6575 55.686 76.0047 55.8329C76.3531 55.9798 76.7625 56.0533 77.2366 56.0533C77.7107 56.0533 78.1338 55.9773 78.476 55.8242C78.8182 55.6711 79.0807 55.4595 79.2624 55.1894C79.4441 54.918 79.5362 54.6055 79.5362 54.252C79.5362 53.9881 79.4864 53.7578 79.3868 53.5611C79.2873 53.3657 79.1529 53.1976 78.9837 53.0607H78.9862Z" fill="white"></path>
<path d="M84.1947 51.3914H82.9391L81.3041 53.2263H81.2257V49.8715H80.1543V55.9599H81.2257V54.4288L81.6164 54.008L83.0126 55.9599H84.2967L82.4277 53.3657L84.1947 51.3914Z" fill="white"></path>
<path d="M87.8171 51.8856C87.623 51.6976 87.4003 51.5582 87.1489 51.4685C86.8976 51.3789 86.6313 51.3341 86.3513 51.3341C85.9158 51.3341 85.5388 51.4337 85.2177 51.6329C84.8967 51.832 84.6478 52.1084 84.4711 52.4644C84.2944 52.8204 84.2061 53.2337 84.2061 53.7043C84.2061 54.1748 84.2944 54.5955 84.4736 54.9466C84.6515 55.2976 84.9066 55.5702 85.2376 55.762C85.5686 55.9537 85.9631 56.0495 86.4197 56.0495C86.7731 56.0495 87.0867 55.996 87.3592 55.8877C87.633 55.7806 87.857 55.6275 88.0324 55.4296C88.2079 55.2317 88.3286 55.0014 88.3933 54.7375L87.3903 54.6192C87.3418 54.7499 87.2709 54.8595 87.18 54.9478C87.0892 55.0362 86.9797 55.1022 86.854 55.1458C86.7271 55.1893 86.5877 55.2105 86.4359 55.2105C86.202 55.2105 85.9979 55.1582 85.8225 55.0549C85.647 54.9516 85.5114 54.8009 85.4143 54.603C85.3272 54.425 85.2799 54.2146 85.2712 53.9719H88.4418V53.637C88.4418 53.2362 88.3858 52.8914 88.2751 52.6013C88.1631 52.3113 88.01 52.0723 87.8159 51.8843L87.8171 51.8856ZM85.7677 52.3349C85.9307 52.2266 86.1273 52.1719 86.3588 52.1719C86.5902 52.1719 86.7831 52.2266 86.9374 52.3349C87.0929 52.4445 87.2087 52.5939 87.2883 52.7868C87.3443 52.9237 87.3804 53.0794 87.3966 53.2511H85.2762C85.2899 53.0794 85.3297 52.92 85.3969 52.7756C85.4815 52.5914 85.6047 52.4457 85.7677 52.3362V52.3349Z" fill="white"></path>
<path d="M92.4373 51.8856C92.2431 51.6976 92.0204 51.5582 91.769 51.4685C91.5177 51.3789 91.2514 51.3341 90.9714 51.3341C90.5359 51.3341 90.1589 51.4337 89.8378 51.6329C89.5168 51.832 89.2679 52.1084 89.0912 52.4644C88.9145 52.8204 88.8262 53.2337 88.8262 53.7043C88.8262 54.1748 88.9158 54.5955 89.0937 54.9466C89.2716 55.2976 89.5267 55.5702 89.8577 55.762C90.19 55.9537 90.5832 56.0495 91.0399 56.0495C91.3933 56.0495 91.7068 55.996 91.9793 55.8877C92.2531 55.7806 92.4771 55.6275 92.6525 55.4296C92.828 55.2317 92.9487 55.0014 93.0134 54.7375L92.0105 54.6192C91.9619 54.7499 91.891 54.8595 91.8002 54.9478C91.7093 55.0362 91.5998 55.1022 91.4741 55.1458C91.3472 55.1893 91.2079 55.2105 91.056 55.2105C90.8221 55.2105 90.618 55.1582 90.4426 55.0549C90.2671 54.9516 90.1315 54.8009 90.0344 54.603C89.9473 54.425 89.9 54.2146 89.8913 53.9719H93.0619V53.637C93.0619 53.2362 93.0059 52.8914 92.8952 52.6013C92.7832 52.3113 92.6301 52.0723 92.436 51.8843L92.4373 51.8856ZM90.3878 52.3349C90.5508 52.2266 90.7474 52.1719 90.9789 52.1719C91.2103 52.1719 91.4032 52.2266 91.5575 52.3349C91.7131 52.4445 91.8288 52.5939 91.9084 52.7868C91.9644 52.9237 92.0005 53.0794 92.0167 53.2511H89.8963C89.91 53.0794 89.9498 52.92 90.017 52.7756C90.1016 52.5914 90.2248 52.4457 90.3878 52.3362V52.3349Z" fill="white"></path>
<path d="M97.0145 51.6042C96.732 51.425 96.4147 51.3341 96.0638 51.3341C95.795 51.3341 95.5735 51.3789 95.4018 51.4685C95.2289 51.5582 95.092 51.6665 94.9924 51.7934C94.8916 51.9204 94.8145 52.0374 94.7597 52.147H94.695V51.3914H93.6436V57.6678H94.7162V55.2366H94.761C94.8157 55.3487 94.8954 55.4657 94.9999 55.5902C95.1044 55.7146 95.2425 55.8205 95.4155 55.9088C95.5885 55.9972 95.8037 56.042 96.0613 56.042C96.4197 56.042 96.742 55.9499 97.0257 55.7657C97.3094 55.5815 97.5334 55.3138 97.6964 54.9628C97.8594 54.6117 97.9415 54.1848 97.9415 53.6843C97.9415 53.1839 97.8582 52.7457 97.6902 52.3972C97.5234 52.0486 97.2982 51.7847 97.0157 51.6042H97.0145ZM96.7208 54.4399C96.6387 54.6628 96.5192 54.8395 96.36 54.9665C96.2007 55.0947 96.0028 55.1582 95.7664 55.1582C95.53 55.1582 95.3433 55.096 95.1828 54.9727C95.0223 54.8482 94.9003 54.6765 94.8182 54.4536C94.7348 54.2321 94.6938 53.9731 94.6938 53.6794C94.6938 53.3856 94.7348 53.1242 94.8182 52.9051C94.9016 52.686 95.0223 52.5167 95.1816 52.3959C95.3408 52.2764 95.5362 52.2167 95.7664 52.2167C95.9966 52.2167 96.2044 52.2789 96.3612 52.4047C96.5192 52.5304 96.6387 52.7034 96.7196 52.9237C96.8017 53.1441 96.8415 53.3968 96.8415 53.6794C96.8415 53.9619 96.8005 54.2159 96.7196 54.4399H96.7208Z" fill="white"></path>
<path d="M101.951 51.8856C101.757 51.6976 101.534 51.5582 101.283 51.4685C101.031 51.3789 100.765 51.3341 100.485 51.3341C100.05 51.3341 99.6725 51.4337 99.3515 51.6329C99.0305 51.832 98.7816 52.1084 98.6049 52.4644C98.4282 52.8204 98.3398 53.2337 98.3398 53.7043C98.3398 54.1748 98.4294 54.5955 98.6074 54.9466C98.7853 55.2976 99.0404 55.5702 99.3714 55.762C99.7024 55.9537 100.097 56.0495 100.554 56.0495C100.907 56.0495 101.221 55.996 101.493 55.8877C101.767 55.7806 101.991 55.6275 102.166 55.4296C102.342 55.2317 102.462 55.0014 102.527 54.7375L101.524 54.6192C101.476 54.7499 101.405 54.8595 101.314 54.9478C101.223 55.0362 101.113 55.1022 100.988 55.1458C100.861 55.1893 100.722 55.2105 100.57 55.2105C100.336 55.2105 100.132 55.1582 99.9563 55.0549C99.7808 54.9516 99.6452 54.8009 99.5481 54.603C99.461 54.425 99.4137 54.2146 99.405 53.9719H102.576V53.637C102.576 53.2362 102.52 52.8914 102.409 52.6013C102.297 52.3113 102.144 52.0723 101.95 51.8843L101.951 51.8856ZM99.9015 52.3349C100.065 52.2266 100.261 52.1719 100.493 52.1719C100.724 52.1719 100.917 52.2266 101.071 52.3349C101.227 52.4445 101.342 52.5939 101.422 52.7868C101.478 52.9237 101.514 53.0794 101.53 53.2511H99.41C99.4237 53.0794 99.4635 52.92 99.5307 52.7756C99.6153 52.5914 99.7385 52.4457 99.9015 52.3362V52.3349Z" fill="white"></path>
<path d="M105.369 51.3304C105.108 51.3304 104.876 51.4014 104.672 51.5446C104.468 51.6877 104.325 51.8931 104.244 52.1595H104.196V51.3914H103.155V55.9599H104.228V53.2798C104.228 53.0832 104.271 52.9126 104.36 52.7645C104.448 52.6176 104.57 52.5018 104.724 52.4172C104.88 52.3325 105.055 52.2902 105.254 52.2902C105.344 52.2902 105.437 52.2952 105.536 52.3064C105.634 52.3176 105.705 52.3313 105.752 52.3475V51.3591C105.704 51.3504 105.641 51.3441 105.567 51.3392C105.492 51.3342 105.426 51.3304 105.369 51.3304Z" fill="white"></path>
<path d="M109.532 53.7976C109.321 53.5934 109.001 53.4465 108.574 53.3569L107.795 53.1939C107.564 53.1416 107.399 53.0731 107.3 52.9872C107.2 52.9013 107.15 52.7918 107.15 52.6586C107.15 52.5055 107.226 52.381 107.377 52.2826C107.527 52.1843 107.714 52.1357 107.938 52.1357C108.186 52.1357 108.377 52.193 108.513 52.3088C108.649 52.4245 108.737 52.5577 108.778 52.7071L109.752 52.605C109.679 52.2179 109.49 51.9092 109.184 51.6801C108.878 51.4498 108.457 51.3353 107.922 51.3353C107.557 51.3353 107.236 51.3926 106.96 51.5071C106.683 51.6216 106.467 51.7822 106.312 51.9889C106.156 52.1955 106.079 52.4407 106.079 52.7245C106.079 53.0569 106.184 53.3295 106.393 53.5436C106.602 53.7578 106.925 53.9121 107.363 54.008L108.142 54.171C108.55 54.2632 108.753 54.4374 108.753 54.6939C108.753 54.847 108.676 54.9752 108.52 55.0798C108.365 55.1843 108.16 55.2366 107.905 55.2366C107.649 55.2366 107.459 55.1843 107.304 55.0798C107.147 54.9752 107.046 54.8208 107 54.6154L105.952 54.7138C106.021 55.1333 106.223 55.4607 106.562 55.6959C106.9 55.9312 107.348 56.0495 107.906 56.0495C108.287 56.0495 108.623 55.9885 108.915 55.8652C109.207 55.742 109.436 55.5715 109.602 55.3499C109.767 55.1296 109.851 54.8756 109.851 54.5893C109.851 54.2656 109.745 54.0005 109.532 53.7963V53.7976Z" fill="white"></path>
<path d="M70.2935 51.3404C71.167 51.3404 71.875 50.632 71.875 49.7582C71.875 48.8844 71.167 48.176 70.2935 48.176C69.42 48.176 68.7119 48.8844 68.7119 49.7582C68.7119 50.632 69.42 51.3404 70.2935 51.3404Z" fill="white"></path>
<path d="M63.9683 57.6678C64.8418 57.6678 65.5499 56.9594 65.5499 56.0856C65.5499 55.2118 64.8418 54.5034 63.9683 54.5034C63.0948 54.5034 62.3867 55.2118 62.3867 56.0856C62.3867 56.9594 63.0948 57.6678 63.9683 57.6678Z" fill="white"></path>
<path d="M68.712 48.176H65.5489C63.8018 48.176 62.3857 49.5926 62.3857 51.3404C62.3857 53.0881 63.8018 54.5047 65.5489 54.5047V51.3404H68.712V48.176Z" fill="white"></path>
<path d="M68.712 51.3391V54.5035H65.5488V57.6678H68.712C70.459 57.6678 71.8751 56.2512 71.8751 54.5035C71.8751 52.7557 70.459 51.3391 68.712 51.3391Z" fill="white"></path>
<path d="M52.8202 56.0408C52.5614 56.0408 52.3461 55.996 52.1731 55.9076C52.0002 55.8193 51.8608 55.7134 51.7563 55.589C51.6518 55.4645 51.5721 55.3475 51.5174 55.2354H51.4514V55.9587H50.3975V49.8702H51.4713V52.147H51.5161C51.5709 52.0375 51.648 51.9205 51.7488 51.7935C51.8496 51.6665 51.9865 51.5582 52.1595 51.4686C52.3324 51.379 52.5539 51.3342 52.8227 51.3342C53.1736 51.3342 53.4909 51.4238 53.7746 51.6043C54.0583 51.7835 54.2836 52.0487 54.4503 52.3972C54.6183 52.7458 54.7017 53.1753 54.7017 53.6844C54.7017 54.1935 54.6195 54.6118 54.4565 54.9641C54.2935 55.3151 54.0695 55.5827 53.7846 55.767C53.4996 55.9512 53.1786 56.0433 52.819 56.0433L52.8202 56.0408ZM52.5265 55.1583C52.763 55.1583 52.9621 55.0948 53.1213 54.9666C53.2806 54.8383 53.4013 54.6628 53.4834 54.44C53.5656 54.2172 53.6054 53.9632 53.6054 53.6794C53.6054 53.3956 53.5643 53.1441 53.4834 52.9238C53.4013 52.7035 53.2819 52.5304 53.1238 52.4047C52.9658 52.279 52.7667 52.2167 52.5278 52.2167C52.2889 52.2167 52.101 52.2765 51.9417 52.396C51.7824 52.5155 51.6617 52.686 51.5783 52.9051C51.495 53.1242 51.4539 53.3831 51.4539 53.6794C51.4539 53.9757 51.495 54.2321 51.5783 54.4537C51.6617 54.6753 51.7837 54.8483 51.9442 54.9728C52.1047 55.0973 52.3001 55.1583 52.5278 55.1583H52.5265Z" fill="white"></path>
<path d="M55.815 57.6678C55.6682 57.6703 55.5326 57.6603 55.4081 57.6367C55.2837 57.613 55.1842 57.5869 55.1082 57.557L55.3621 56.7192L55.4156 56.7354C55.6334 56.7927 55.8188 56.7964 55.9731 56.7479C56.1274 56.6993 56.2506 56.5499 56.3426 56.3022L56.4322 56.057L54.7822 51.3901H55.922L56.9723 54.8433H57.0208L58.0748 51.3901H59.2221L57.3916 56.5101C57.307 56.7528 57.195 56.9607 57.0569 57.1338C56.9175 57.3068 56.7471 57.4387 56.5417 57.5296C56.3377 57.6205 56.095 57.6665 55.815 57.6665V57.6678Z" fill="white"></path>
<path d="M11.2734 8.06519C6.25864 8.06519 2.19336 12.132 2.19336 17.1487H17.403L20.3534 8.06519H11.2734Z" fill="white"></path>
<path d="M30.0453 8.50961C28.4961 3.73819 23.3731 1.12779 18.6035 2.6776L23.3034 17.1487H32.8513L30.0453 8.50961Z" fill="white"></path>
<path d="M35.4239 26.5074C39.4805 23.5584 40.3802 17.8782 37.4323 13.8188L25.127 22.7629L28.0773 31.8464L35.4227 26.5074H35.4239Z" fill="white"></path>
<path d="M19.9753 37.1866C24.0318 40.1356 29.711 39.2356 32.6589 35.1775L20.3535 26.2334L12.6299 31.8476L19.9753 37.1866Z" fill="white"></path>
<path d="M5.05023 25.7878C3.50102 30.5592 6.11042 35.6841 10.88 37.2339L15.5799 22.7628L7.85624 17.1487L5.05023 25.7878Z" fill="white"></path>
</svg>