<svg width="28" height="28" viewBox="0 0 28 28" fill="none" xmlns="http://www.w3.org/2000/svg" aria-hidden="true">
<rect width="28" height="28" rx="14" fill="#71C146"></rect>
<path d="M18.9424 15.9863L16.6455 15.002C16.584 14.9814 16.5225 14.9609 16.4404 14.9609C16.2969 14.9609 16.1533 15.043 16.0713 15.1455L15.0459 16.3965C13.4463 15.6377 12.1748 14.3662 11.416 12.7666L12.667 11.7412C12.7695 11.6592 12.8516 11.5156 12.8516 11.3516C12.8516 11.29 12.8311 11.2285 12.8105 11.167L11.8262 8.87012C11.7441 8.68555 11.5596 8.5625 11.3545 8.5625C11.334 8.5625 11.293 8.58301 11.252 8.58301L9.11914 9.0752C8.89355 9.13672 8.75 9.32129 8.75 9.54688C8.75 14.8174 12.9951 19.0625 18.2656 19.0625C18.4912 19.0625 18.6758 18.9189 18.7373 18.6934L19.2295 16.5605C19.2295 16.5195 19.2295 16.4785 19.2295 16.458C19.2295 16.2529 19.1064 16.0684 18.9424 15.9863Z" fill="white"></path>
</svg>