<svg width="24" height="24" viewBox="0 0 24 24" fill="none" xmlns="http://www.w3.org/2000/svg" aria-hidden="true">
<path d="M3.66741 3.8712L7.32058 3.02707C7.70697 2.92155 8.12849 3.13259 8.30412 3.51948L9.9902 7.45875C10.1307 7.81047 10.0253 8.19736 9.74432 8.44357L7.60159 10.2022C8.86615 12.8753 11.0791 15.1263 13.819 16.4276L15.5753 14.2821C15.8212 14.0008 16.2076 13.8952 16.5589 14.0359L20.4931 15.7242C20.8795 15.9 21.0551 16.3221 20.9848 16.709L20.1418 20.3669C20.0364 20.7538 19.7203 21 19.2988 21C10.3063 21 3 13.7194 3 4.68016C3 4.29326 3.28101 3.97672 3.66741 3.8712Z" fill="#71C146"></path>
</svg>