<svg width="24" height="24" viewBox="0 0 24 24" fill="none" xmlns="http://www.w3.org/2000/svg" aria-hidden="true">
<path d="M11.151 19.0339C11.4206 19.4532 12.0494 19.4532 12.319 19.0339C16.6914 12.7448 17.5 12.0859 17.5 9.75C17.5 6.57552 14.9244 4 11.75 4C8.54557 4 6 6.57552 6 9.75C6 12.0859 6.77865 12.7448 11.151 19.0339ZM11.75 12.1458C10.4023 12.1458 9.35417 11.0977 9.35417 9.75C9.35417 8.4323 10.4023 7.35417 11.75 7.35417C13.0677 7.35417 14.1458 8.4323 14.1458 9.75C14.1458 11.0977 13.0677 12.1458 11.75 12.1458Z" fill="#333333"></path>
</svg>