<svg width="17" height="15" fill="none" xmlns="http://www.w3.org/2000/svg" aria-hidden="true"><path d="M15.063 5.453L11.07 4.88 9.266 1.242a.863.863 0 00-1.559 0L5.902 4.88l-3.992.574a.887.887 0 00-.492 1.504l2.898 2.816-.683 3.965c-.11.575.355 1.012.875 1.012.137 0 .273-.027.41-.082l3.555-1.887 3.582 1.887c.136.055.273.082.41.082.52 0 .957-.438.875-1.012l-.684-3.965 2.899-2.816a.887.887 0 00-.492-1.504zm-3.336 3.363l-.493.493.11.683.547 3.09-2.79-1.45-.628-.327.027-8.668 1.395 2.816.3.629.684.082 3.117.465-2.27 2.187z" fill="#FFDC00"></path></svg>